<svg width="20" height="20" viewBox="0 0 20 20" fill="none" xmlns="http://www.w3.org/2000/svg">
    <path d="M17.857 0H2.143C.959 0 0 1.414 0 3.158v13.684C0 18.586.96 20 2.143 20h15.714C19.041 20 20 18.586 20 16.842V3.158C20 1.414 19.04 0 17.857 0z" fill="#0CC8CC"/>
    <path fill-rule="evenodd" clip-rule="evenodd" d="M4.224 2.105c-.497 0-1.012.124-1.363.46-.57.544-.736 1.607-.717 2.585.017.846.163 1.755.552 2.38.37.597 1.133.865 1.653.865.023 0 .048.026.048.075v.854c0 .084.042.15.097.15l.009-.002a.082.082 0 0 0 .053-.033c.262-.347.524-.701.776-1.065.243-.348.517-.707.707-1.124.4-.88.459-2.126.326-3.158-.127-.994-.582-1.64-1.22-1.846a3.079 3.079 0 0 0-.92-.14zM1.429 15.527v.24h.001c0 1.162.639 2.104 1.427 2.105l14.286.02v.003c.789 0 1.43-.941 1.43-2.104v-.002l-.001-3.553-3.4-4.357c-.538-.688-1.338-.688-1.875 0L8.77 13.678l-1.198-1.536c-.451-.577-1.099-.68-1.623-.258l-4.521 3.643z" fill="#B0F6F8"/>
</svg>
