<svg width="20" height="20" viewBox="0 0 20 20" fill="none" xmlns="http://www.w3.org/2000/svg">
    <path d="M17 0H3a3 3 0 0 0-3 3v14a3 3 0 0 0 3 3h14a3 3 0 0 0 3-3V3a3 3 0 0 0-3-3z" fill="#B0F6F8"/>
    <path d="M16.5.5h-13a3 3 0 0 0-3 3v13a3 3 0 0 0 3 3h13a3 3 0 0 0 3-3v-13a3 3 0 0 0-3-3z" stroke="#0CC8CC"/>
    <path fill-rule="evenodd" clip-rule="evenodd" d="M3 0h14a3 3 0 0 1 3 3v6H0V3a3 3 0 0 1 3-3z" fill="#0CC8CC"/>
    <path d="M3 3h14M3 6h14" stroke="#B0F6F8"/>
    <path d="M0 14h18.958" stroke="#0CC8CC"/>
</svg>
