<svg width="42" height="20" viewBox="0 0 42 20" fill="none" xmlns="http://www.w3.org/2000/svg">
    <path d="M17.19 0H3.857C2.28 0 1 1.343 1 3v14c0 1.657 1.28 3 2.857 3H17.19c1.578 0 2.857-1.343 2.857-3V3c0-1.657-1.279-3-2.857-3z" fill="#B0F6F8"/>
    <path d="M16.714.5H4.334c-1.578 0-2.858 1.343-2.858 3v13c0 1.657 1.28 3 2.857 3h12.381c1.578 0 2.858-1.343 2.858-3v-13c0-1.657-1.28-3-2.858-3z" stroke="#0CC8CC"/>
    <path fill-rule="evenodd" clip-rule="evenodd" d="M3.857 0H17.19c1.578 0 2.857 1.343 2.857 3v7.476H1V3c0-1.657 1.28-3 2.857-3z" fill="#0CC8CC"/>
    <path d="M38.143 0H24.809c-1.577 0-2.857 1.343-2.857 3v14c0 1.657 1.28 3 2.857 3h13.334C39.72 20 41 18.657 41 17V3c0-1.657-1.28-3-2.857-3z" fill="#B0F6F8"/>
    <path d="M37.666.5h-12.38c-1.578 0-2.858 1.343-2.858 3v13c0 1.657 1.28 3 2.858 3h12.38c1.579 0 2.858-1.343 2.858-3v-13c0-1.657-1.28-3-2.858-3z" stroke="#0CC8CC"/>
    <path fill-rule="evenodd" clip-rule="evenodd" d="M24.81 0h13.333C39.72 0 41 1.343 41 3v7.476H21.952V3c0-1.657 1.28-3 2.857-3z" fill="#0CC8CC"/>
</svg>
