<svg width="15" height="14" fill="none" xmlns="http://www.w3.org/2000/svg">
    <path fill-rule="evenodd" clip-rule="evenodd" d="M7.5.833a6.667 6.667 0 0 0-2.107 12.993c.333.061.455-.145.455-.322 0-.158-.006-.577-.01-1.133-1.854.402-2.245-.894-2.245-.894-.303-.77-.74-.975-.74-.975-.606-.414.045-.405.045-.405.67.047 1.022.687 1.022.687.594 1.018 1.56.724 1.94.553.06-.43.233-.724.423-.89-1.48-.169-3.037-.74-3.037-3.295 0-.728.26-1.324.687-1.79-.07-.168-.298-.846.065-1.764 0 0 .56-.179 1.833.684a6.385 6.385 0 0 1 1.67-.225 6.392 6.392 0 0 1 1.668.225c1.273-.863 1.832-.684 1.832-.684.363.918.135 1.596.066 1.765.428.465.685 1.06.685 1.789 0 2.56-1.558 3.124-3.043 3.29.239.205.452.612.452 1.233 0 .892-.008 1.61-.008 1.83 0 .178.12.385.458.32A6.669 6.669 0 0 0 7.5.833z" fill="#182359"/>
</svg>
