<svg width="15" height="16" fill="none" xmlns="http://www.w3.org/2000/svg">
    <path fill-rule="evenodd" clip-rule="evenodd" d="M14.349 8.258c0-.466-.044-.915-.126-1.345H7.73v2.544h3.71c-.159.822-.645 1.518-1.375 1.984v1.65h2.229c1.304-1.145 2.056-2.83 2.056-4.833z" fill="#4285F4"/>
    <path fill-rule="evenodd" clip-rule="evenodd" d="M7.729 14.685c1.862 0 3.423-.59 4.564-1.594l-2.229-1.65c-.617.395-1.407.628-2.335.628a4.092 4.092 0 0 1-3.858-2.711H1.567v1.704c1.134 2.15 3.466 3.623 6.162 3.623z" fill="#34A853"/>
    <path fill-rule="evenodd" clip-rule="evenodd" d="M3.87 9.358a3.788 3.788 0 0 1-.216-1.25c0-.433.079-.854.217-1.249V5.155H1.567A6.329 6.329 0 0 0 .833 8.11c0 1.06.267 2.065.734 2.953L3.87 9.358z" fill="#FBBC05"/>
    <path fill-rule="evenodd" clip-rule="evenodd" d="M7.729 4.148c1.012 0 1.921.332 2.636.983l1.978-1.886c-1.194-1.06-2.755-1.713-4.614-1.713-2.695 0-5.028 1.474-6.162 3.623L3.87 6.86a4.093 4.093 0 0 1 3.858-2.711z" fill="#EA4335"/>
</svg>
