<svg width="17" height="17" viewBox="0 0 17 17" fill="none" xmlns="http://www.w3.org/2000/svg">
    <path d="M8.5 15.938c4.142 0 7.5-3.344 7.5-7.469S12.642 1 8.5 1C4.358 1 1 4.344 1 8.47c0 4.124 3.358 7.468 7.5 7.468z" stroke="#fff" stroke-miterlimit="10" stroke-linecap="round"/>
    <path d="M10.042 11.746c-.046-.502-.028-.852-.028-1.31.228-.12.636-.88.705-1.522.18-.014.463-.189.545-.877.045-.37-.132-.577-.24-.642.291-.875.898-3.58-1.122-3.859-.208-.363-.74-.547-1.431-.547-2.767.05-3.101 2.08-2.494 4.406-.108.065-.286.273-.241.642.083.688.365.863.545.877.068.642.493 1.402.722 1.521 0 .459.017.809-.028 1.31-.394 1.056-2.418 1.138-3.586 2.155C4.61 15.124 6.59 16 8.676 16c2.087 0 4.54-1.641 4.95-2.09-1.161-1.026-3.19-1.106-3.584-2.164z" stroke="#fff" stroke-miterlimit="10" stroke-linecap="round"/>
</svg>
