<svg width="13" height="13" viewBox="0 0 13 13" fill="none" xmlns="http://www.w3.org/2000/svg">
    <path d="M6.365.002c3.303-.082 6.055 2.655 6.133 6.1.078 3.447-2.545 6.315-5.848 6.396-2.108.053-4.046-1.021-5.187-2.873l1.62-1.085c.775 1.258 2.091 1.988 3.521 1.952 2.244-.056 4.024-2.004 3.97-4.344-.052-2.34-1.92-4.197-4.163-4.142-1.64.04-3.087 1.095-3.689 2.684l-1.79-.738C1.818 1.612 3.951.06 6.365.002z" fill="#7C8292"/>
    <path d="M4.51 7.261.884 6.101a.213.213 0 0 0-.272.175l-.609 3.906c-.03.186.166.323.322.223L4.563 7.66c.153-.1.123-.344-.053-.399z" fill="#7C8292"/>
</svg>
