<svg width="101" height="110" viewBox="0 0 101 110" fill="none" xmlns="http://www.w3.org/2000/svg">
    <path d="M78.078 33.285c.453 1 1.598 1.424 2.525.914.927-.489 1.321-1.721.848-2.72-5.642-12.302-17.774-20.27-30.931-20.27-18.228 0-33.18 14.852-34.167 33.508-2.032.191-3.984.722-5.76 1.593a44.777 44.777 0 0 1 3.452-15.086c.434-1.02 0-2.23-.947-2.698-.946-.468-2.07 0-2.505 1.02-2.545 6.077-3.846 12.579-3.846 19.293C2.683 52.345.059 57.742.059 63.776c0 10.56 7.97 19.145 17.774 19.145h3.452c1.046 0 1.894-.914 1.894-2.04v-6.8c0-1.126-.848-2.04-1.894-2.04-1.046 0-1.894.915-1.894 2.04v4.76h-1.578c-7.713 0-13.986-6.757-13.986-15.065S10.1 48.711 17.813 48.711h1.578v17.254c0 1.126.849 2.04 1.894 2.04 1.046 0 1.894-.914 1.894-2.04V46.672c0-1.126-.848-2.04-1.894-2.04h-1.144C21.167 28.25 34.383 15.267 50.52 15.267c11.737.021 22.547 7.076 27.558 18.018z" fill="#fff"/>
    <path d="M93.859 48.5C93.662 22.81 74.211 1.986 50.322 1.986c-12.27-.021-24.046 5.61-32.292 15.405-.69.829-.631 2.125.138 2.868.77.765 1.973.702 2.663-.148 7.536-8.967 18.287-14.088 29.491-14.088 21.068 0 38.349 17.742 39.69 40.074a16.546 16.546 0 0 0-5.306-1.381 38.869 38.869 0 0 0-.651-5.248c-.217-1.105-1.223-1.785-2.249-1.552-1.026.234-1.677 1.318-1.44 2.423.276 1.423.454 2.868.552 4.334h-1.144c-1.045 0-1.894.914-1.894 2.04v34.21c0 1.126.849 2.04 1.894 2.04h3.452c2.19 0 4.32-.447 6.313-1.254v5.036c0 3.272-1.184 6.331-3.334 8.647-2.15 2.317-4.99 3.591-8.029 3.591h-6.648c-.078 0-.138.022-.217.022V95.69c0-1.126-.848-2.04-1.893-2.04h-9.37c-2.782 0-5.03 2.422-5.03 5.418v3.166c0 2.996 2.248 5.419 5.03 5.419h9.37c1.045 0 1.893-.914 1.893-2.04v-2.593c.08 0 .139.022.217.022h6.648c4.044 0 7.832-1.7 10.692-4.781 2.86-3.081 4.439-7.16 4.439-11.516v-7.182a16.431 16.431 0 0 0 2.229-1.934c.75-.786.77-2.061.059-2.868-.73-.808-1.914-.83-2.663-.064a13.883 13.883 0 0 1-2.525 2.06s-.02 0-.02.022c-2.15 1.381-4.596 2.125-7.14 2.125h-1.579V48.711h1.578c7.713 0 13.986 6.757 13.986 15.065 0 1.934-.335 3.804-.986 5.567-.395 1.041.079 2.231 1.045 2.635.967.404 2.072-.085 2.447-1.126A20.436 20.436 0 0 0 101 63.776c0-6.247-2.82-11.792-7.141-15.277zM67.564 103.53h-7.497c-.69 0-1.262-.616-1.262-1.359v-3.166c0-.744.572-1.36 1.262-1.36h7.497v5.885z" fill="#fff"/>
</svg>
